<svg xmlns="http://www.w3.org/2000/svg" width="35" height="41" viewBox="0 0 35 41">
  <defs>
    <linearGradient id="group-a" x1="88.701%" x2="15.099%" y1="17.327%" y2="83.791%">
      <stop offset="0%" stop-color="#3156FA"/>
      <stop offset="100%" stop-color="#33E3CE"/>
    </linearGradient>
  </defs>
  <g fill="none" fill-rule="evenodd" transform="translate(0 .5)">
    <rect width="34.627" height="29.851" fill="#FFF" rx="6" transform="translate(0 10.15)"/>
    <path fill="url(#group-a)" d="M6.56716418,8.35820896 C7.65308457,3.5725643 11.932906,0 17.0471446,0 C22.1613831,0 26.4412046,3.5725643 27.527125,8.35820896 L24.434011,8.35820896 C23.4267788,5.24028177 20.5003276,2.98507463 17.0471446,2.98507463 C13.5939615,2.98507463 10.6675104,5.24028177 9.66027815,8.35820896 L6.56716418,8.35820896 Z"/>
    <path fill="url(#group-a)" d="M6.56716418,22.0895522 C7.65308457,17.3039076 11.932906,13.7313433 17.0471446,13.7313433 C22.1613831,13.7313433 26.4412046,17.3039076 27.527125,22.0895522 L24.434011,22.0895522 C23.4267788,18.9716251 20.5003276,16.7164179 17.0471446,16.7164179 C13.5939615,16.7164179 10.6675104,18.9716251 9.66027815,22.0895522 L6.56716418,22.0895522 Z" transform="rotate(-180 17.047 17.91)"/>
  </g>
</svg>
